# xmcd CD database file
# Copyright (C) 1993-1998 Ti Kan
#
# Track frame offsets:
#   182
#   21732
#   43582
#   64400
#   75670
#   82815
#   92832
#   102440
#   112517
#   122507
#   147100
#   153075
#   172335
#   181100
#   188335
#   200220
#   207447
#   217807
#   228025
#   233827
#   241825
#   252800
#   261905
#
# Disc length: 3704 seconds
#
# Revision: 1
# Processed by: cddbd v1.4b41PL1 Copyright (c) Steve Scherf et al.
# Submitted via: NotifyCDPlayer(CDDB) 1.50
#
DISCID=2e0e7617
DTITLE=Radomir Mihailovic Tocak - Byzantine Blue
DYEAR=1900
DGENRE=
TTITLE0=Blame
TTITLE1=Byzantine Blue
TTITLE2=Mathematics Of Another Kind
TTITLE3=Honey
TTITLE4=Emery
TTITLE5=Come - On
TTITLE6=Blue Dance
TTITLE7=Love Touch
TTITLE8=My Diary
TTITLE9=Zajdi Zajdi
TTITLE10=Alchemy
TTITLE11=Syncope
TTITLE12=Decision
TTITLE13=Blue
TTITLE14=Blue Fish
TTITLE15=Destruction
TTITLE16=Once Upon time
TTITLE17=Havana Blues
TTITLE18=Funky Turtles
TTITLE19=Far From Home
TTITLE20=Postulate
TTITLE21=Two Days After
TTITLE22=Funky Turtles II
EXTD=
EXTT0=
EXTT1=
EXTT2=
EXTT3=
EXTT4=
EXTT5=
EXTT6=
EXTT7=
EXTT8=
EXTT9=
EXTT10=
EXTT11=
EXTT12=
EXTT13=
EXTT14=
EXTT15=
EXTT16=
EXTT17=
EXTT18=
EXTT19=
EXTT20=
EXTT21=
EXTT22=
PLAYORDER=
